# xmcd
#
# Track frame offsets: 
#        150
#        14764
#        36747
#        57336
#        73070
#        97622
#        114828
#        134282
#        150930
#        172820
#        199073
#        223367
#        241861
#        257280
#        279975
#        298756
#        319941
#        336668
#
# Disc length: 4762 seconds
#
# Revision: 0
# Processed by: cddbd v1.5.1PL2 Copyright (c) Steve Scherf et al.
# Submitted via: ExactAudioCopy v0.95b4
#
DISCID=0b129812
DTITLE=Various Artist - Los Sonidos Del
DYEAR=2004
DGENRE=Other
TTITLE0=Vino Griego
TTITLE1=Soleado
TTITLE2=House of the Rising Sun
TTITLE3=Song of Ocarina
TTITLE4=Romeo and Lulliet
TTITLE5=Fernando
TTITLE6=Sailling
TTITLE7=Unchainde Mellody
TTITLE8=My Heart Will Go On
TTITLE9=Chiquita
TTITLE10=Wind of Change
TTITLE11=El Condor Passa
TTITLE12=Sound of Silence
TTITLE13=Volvere (Torenero)
TTITLE14=Pastor Solitario
TTITLE15=To France (Moonlight Shadow)
TTITLE16=Con Te Partiro
TTITLE17=I Have a Dream
EXTD=
EXTT0=
EXTT1=
EXTT2=
EXTT3=
EXTT4=
EXTT5=
EXTT6=
EXTT7=
EXTT8=
EXTT9=
EXTT10=
EXTT11=
EXTT12=
EXTT13=
EXTT14=
EXTT15=
EXTT16=
EXTT17=
PLAYORDER=
